<svg width="104" height="40" viewBox="0 0 104 40" fill="none" xmlns="http://www.w3.org/2000/svg">
<mask id="path-1-inside-1_2_546" fill="white">
<path d="M0.5 0H99.3916C101.601 0 103.392 1.79086 103.392 4V36C103.392 38.2091 101.601 40 99.3916 40H0.5V0Z"/>
</mask>
<path d="M0.5 0H99.3916C101.601 0 103.392 1.79086 103.392 4V36C103.392 38.2091 101.601 40 99.3916 40H0.5V0Z" fill="#F2F4F7"/>
<path d="M0.5 -0.8H99.3916C102.043 -0.8 104.192 1.34903 104.192 4H102.592C102.592 2.23269 101.159 0.8 99.3916 0.8H0.5V-0.8ZM104.192 36C104.192 38.651 102.043 40.8 99.3916 40.8H0.5V39.2H99.3916C101.159 39.2 102.592 37.7673 102.592 36H104.192ZM0.5 40V0V40ZM99.3916 -0.8C102.043 -0.8 104.192 1.34903 104.192 4V36C104.192 38.651 102.043 40.8 99.3916 40.8V39.2C101.159 39.2 102.592 37.7673 102.592 36V4C102.592 2.23269 101.159 0.8 99.3916 0.8V-0.8Z" fill="#363640" fill-opacity="0.2" mask="url(#path-1-inside-1_2_546)"/>
<path fill-rule="evenodd" clip-rule="evenodd" d="M55.0458 18.5C55.0458 21.2614 52.8072 23.5 50.0458 23.5C47.2844 23.5 45.0458 21.2614 45.0458 18.5C45.0458 15.7386 47.2844 13.5 50.0458 13.5C52.8072 13.5 55.0458 15.7386 55.0458 18.5ZM53.8856 23.7451C52.8098 24.5341 51.4822 25 50.0458 25C46.4559 25 43.5458 22.0899 43.5458 18.5C43.5458 14.9102 46.4559 12 50.0458 12C53.6357 12 56.5458 14.9102 56.5458 18.5C56.5458 19.9364 56.0799 21.264 55.2909 22.3398L59.2548 26.3036C59.6428 26.6917 59.6428 27.3209 59.2548 27.709C58.8667 28.097 58.2375 28.097 57.8494 27.709L53.8856 23.7451Z" fill="#595B66"/>
</svg>
