<svg width="25" height="24" viewBox="0 0 25 24" fill="none" xmlns="http://www.w3.org/2000/svg">
<rect x="4.19995" y="9.5" width="17" height="11" rx="1.5" fill="#7000FF"/>
<rect x="4.19995" y="9.5" width="17" height="11" rx="1.5" stroke="#7000FF"/>
<rect x="5.29993" y="10.6001" width="14.8" height="8.8" rx="1" fill="#F0F0FF"/>
<mask id="path-3-inside-1_2_534" fill="white">
<path d="M5.70996 4.6C5.70996 3.71634 6.42631 3 7.30996 3H18.1C18.9836 3 19.7 3.71634 19.7 4.6H5.70996Z"/>
</mask>
<path d="M5.70996 4.6C5.70996 2.83269 7.14265 1.4 8.90996 1.4H16.5C18.2673 1.4 19.7 2.83269 19.7 4.6C19.7 4.6 18.9836 4.6 18.1 4.6H7.30996C6.42631 4.6 5.70996 4.6 5.70996 4.6ZM19.7 4.6H5.70996H19.7ZM5.70996 4.6V3V4.6ZM19.7 3V4.6V3Z" fill="#7000FF" mask="url(#path-3-inside-1_2_534)"/>
<mask id="path-5-inside-2_2_534" fill="white">
<path d="M4.70996 7.6C4.70996 6.71634 5.42631 6 6.30996 6H19.09C19.9736 6 20.69 6.71634 20.69 7.6H4.70996Z"/>
</mask>
<path d="M4.70996 7.6C4.70996 6.71634 5.42631 6 6.30996 6H19.09C19.9736 6 20.69 6.71634 20.69 7.6H4.70996Z" fill="#7000FF"/>
<path d="M4.70996 7.6C4.70996 5.83269 6.14265 4.4 7.90996 4.4H17.49C19.2573 4.4 20.69 5.83269 20.69 7.6C20.69 7.6 19.9736 7.6 19.09 7.6H6.30996C5.42631 7.6 4.70996 7.6 4.70996 7.6ZM20.69 7.6H4.70996H20.69ZM4.70996 7.6V6V7.6ZM20.69 6V7.6V6Z" fill="#7000FF" mask="url(#path-5-inside-2_2_534)"/>
</svg>
