<svg width="25" height="26" viewBox="0 0 25 26" fill="none" xmlns="http://www.w3.org/2000/svg">
<path d="M8.59998 10.53V8.53003H6.59998V13.03C6.59998 13.3061 6.37612 13.53 6.09998 13.53C5.82384 13.53 5.59998 13.3061 5.59998 13.03V7.53003H8.59998C8.59998 5.12631 10.5522 3.53003 12.6 3.53003C14.6575 3.53003 16.6 5.23559 16.6 7.53003H19.6V20.03C19.6 20.8584 18.9284 21.53 18.1 21.53H13.1C12.8239 21.53 12.6 21.3061 12.6 21.03C12.6 20.7539 12.8239 20.53 13.1 20.53H18.1C18.3761 20.53 18.6 20.3061 18.6 20.03V8.53003H16.6V10.53H15.6V8.53003H9.59998V10.53H8.59998ZM12.6 4.53003C11.0477 4.53003 9.59998 5.73375 9.59998 7.53003H15.6C15.6 5.82447 14.1425 4.53003 12.6 4.53003Z" fill="#1F2026"/>
<path d="M8.09998 14.53C8.37612 14.53 8.59998 14.7539 8.59998 15.03V17.53H11.1C11.3761 17.53 11.6 17.7539 11.6 18.03C11.6 18.3061 11.3761 18.53 11.1 18.53H8.59998V21.03C8.59998 21.3061 8.37612 21.53 8.09998 21.53C7.82384 21.53 7.59998 21.3061 7.59998 21.03V18.53H5.09998C4.82384 18.53 4.59998 18.3061 4.59998 18.03C4.59998 17.7539 4.82384 17.53 5.09998 17.53H7.59998V15.03C7.59998 14.7539 7.82384 14.53 8.09998 14.53Z" fill="#1F2026"/>
</svg>
