<svg width="25" height="24" viewBox="0 0 25 24" fill="none" xmlns="http://www.w3.org/2000/svg">
<path fill-rule="evenodd" clip-rule="evenodd" d="M16.0458 10.5C16.0458 13.2614 13.8072 15.5 11.0458 15.5C8.28436 15.5 6.04578 13.2614 6.04578 10.5C6.04578 7.73858 8.28436 5.5 11.0458 5.5C13.8072 5.5 16.0458 7.73858 16.0458 10.5ZM14.8856 15.7451C13.8098 16.5341 12.4822 17 11.0458 17C7.45593 17 4.54578 14.0899 4.54578 10.5C4.54578 6.91015 7.45593 4 11.0458 4C14.6357 4 17.5458 6.91015 17.5458 10.5C17.5458 11.9364 17.0799 13.264 16.2909 14.3398L20.2548 18.3036C20.6428 18.6917 20.6428 19.3209 20.2548 19.709C19.8667 20.097 19.2375 20.097 18.8494 19.709L14.8856 15.7451Z" fill="#595B66"/>
</svg>
